<svg width="81" height="26" viewBox="0 0 81 26" fill="none" xmlns="http://www.w3.org/2000/svg">
<path d="M0.234375 20.9883H6.375V12.5859L12.5273 20.9883H15.5977L21.75 12.5859V20.9883H27.8906V5.23828H20.2148L14.0625 13.1133L7.92188 5.23828H0.234375V20.9883ZM36.0502 10.4297C36.0502 9.17578 38.3939 8.89453 40.3041 8.89453C42.2259 8.89453 43.8548 9.1875 44.558 10.4297H50.9916C50.4056 5.50781 45.8236 4.88672 40.3041 4.85156C34.7728 4.85156 29.6166 5.92969 29.6166 10.4297C29.6048 14.3672 35.7806 14.6719 40.1752 14.8945C42.6478 15.0117 44.558 15.1172 44.558 15.8086C44.558 17.0273 42.2142 17.3438 40.3041 17.3438C38.3822 17.3438 36.7533 17.0273 36.0502 15.8086H29.6166C30.2025 20.6953 34.7845 21.3633 40.3041 21.375C45.8353 21.375 50.9916 20.3086 50.9916 15.8086C51.0033 11.8594 44.8275 11.5547 40.433 11.332C37.9603 11.2148 36.0502 11.1211 36.0502 10.4297ZM62.4441 15.0352H67.3894C66.4636 16.2305 64.9167 16.3711 62.4909 16.3711C59.9714 16.3359 57.8386 15.8906 57.8737 13.3008V12.9141C57.8386 10.3477 59.9714 9.87891 62.4909 9.84375C63.3933 9.84375 64.2136 9.9375 64.9402 10.125C65.6667 10.3125 66.2292 10.6641 66.6159 11.1914H73.1433C72.4519 6.33984 67.9519 4.85156 62.4909 4.85156C56.5612 4.86328 51.7097 6.57422 51.7331 12.5391V13.6875C51.7097 19.6406 56.5612 21.3516 62.4909 21.375C65.1628 21.375 67.9402 20.7305 69.7683 18.9258L70.073 21.375H73.1433V12.3398H62.4441V15.0352Z" fill="black"/>
<path d="M74.2174 0L75.6133 4.29611H80.1305L76.476 6.95125L77.8719 11.2474L74.2174 8.59222L70.5629 11.2474L71.9588 6.95125L68.3043 4.29611H72.8215L74.2174 0Z" fill="#F06305"/>
</svg>
